<svg width="134" height="32" viewBox="0 0 134 32" fill="none" xmlns="http://www.w3.org/2000/svg">
<path d="M0 9.77696C0 9.37708 0.212104 9.00721 0.557232 8.80524L13.9095 0.991611C14.6601 0.55239 15.604 1.0937 15.604 1.96333V13.7389L7.88487 9.13133V31.9999H1.12587C0.50407 31.9999 0 31.4959 0 30.8741V9.77696Z" fill="#3AACFF"/>
<path d="M15.6045 13.7532L22.8834 18.2251C23.2168 18.4299 23.4199 18.7931 23.4199 19.1844V30.8741C23.4199 31.4959 22.9159 31.9999 22.2941 31.9999H16.7304C16.1086 31.9999 15.6045 31.4959 15.6045 30.8741V13.7532Z" fill="#7DFF17"/>
<path d="M32.3801 24.6633V9.53312H38.446C40.0146 9.53312 41.2091 9.90057 42.0294 10.6355C42.8641 11.3559 43.2814 12.2854 43.2814 13.4237C43.2814 14.3748 43.0224 15.1385 42.5043 15.7149C42.0006 16.2769 41.3818 16.6587 40.6479 16.8605C41.5113 17.0334 42.2237 17.4657 42.7849 18.1573C43.3462 18.8346 43.6268 19.6271 43.6268 20.5349C43.6268 21.7309 43.1951 22.718 42.3316 23.4961C41.4682 24.2743 40.2449 24.6633 38.6619 24.6633H32.3801ZM35.1432 15.8878H38.0359C38.813 15.8878 39.4102 15.7077 39.8276 15.3474C40.2449 14.9872 40.4536 14.4757 40.4536 13.8128C40.4536 13.1788 40.2449 12.6816 39.8276 12.3214C39.4246 11.9467 38.813 11.7594 37.9927 11.7594H35.1432V15.8878ZM35.1432 22.4154H38.2301C39.0504 22.4154 39.6836 22.2281 40.1298 21.8534C40.5903 21.4644 40.8206 20.924 40.8206 20.2323C40.8206 19.5263 40.5831 18.9715 40.1082 18.568C39.6333 18.1645 38.9929 17.9628 38.187 17.9628H35.1432V22.4154Z" fill="#CEEAFF"/>
<path d="M45.9336 24.6633V9.10083H48.6967V24.6633H45.9336Z" fill="#CEEAFF"/>
<path d="M56.6576 24.9227C55.6215 24.9227 54.6861 24.6849 53.8514 24.2094C53.0311 23.7339 52.3763 23.0782 51.887 22.2425C51.4121 21.3923 51.1746 20.4125 51.1746 19.3029C51.1746 18.1934 51.4193 17.2207 51.9086 16.3849C52.3979 15.5348 53.0527 14.8719 53.873 14.3964C54.7076 13.9209 55.6431 13.6831 56.6792 13.6831C57.701 13.6831 58.622 13.9209 59.4423 14.3964C60.277 14.8719 60.9318 15.5348 61.4067 16.3849C61.896 17.2207 62.1407 18.1934 62.1407 19.3029C62.1407 20.4125 61.896 21.3923 61.4067 22.2425C60.9318 23.0782 60.277 23.7339 59.4423 24.2094C58.6077 24.6849 57.6794 24.9227 56.6576 24.9227ZM56.6576 22.5235C57.3772 22.5235 58.0032 22.2569 58.5357 21.7237C59.0682 21.1762 59.3344 20.3692 59.3344 19.3029C59.3344 18.2366 59.0682 17.4368 58.5357 16.9037C58.0032 16.3561 57.3844 16.0823 56.6792 16.0823C55.9453 16.0823 55.3121 16.3561 54.7796 16.9037C54.2615 17.4368 54.0025 18.2366 54.0025 19.3029C54.0025 20.3692 54.2615 21.1762 54.7796 21.7237C55.3121 22.2569 55.9381 22.5235 56.6576 22.5235Z" fill="#CEEAFF"/>
<path d="M63.0274 24.6633L66.913 19.3029L63.0274 13.9425H65.9848L68.7048 17.7467L71.4031 13.9425H74.3821L70.4749 19.3029L74.3821 24.6633H71.4031L68.7048 20.8592L65.9848 24.6633H63.0274Z" fill="#CEEAFF"/>
<path d="M82.4889 24.9227C81.683 24.9227 80.9778 24.7714 80.3734 24.4688C79.769 24.1662 79.2797 23.7411 78.9055 23.1935L78.6033 24.6633H76.1424V9.10083H78.9055V15.4771C79.2509 15.0016 79.7042 14.5837 80.2655 14.2235C80.8411 13.8632 81.5823 13.6831 82.4889 13.6831C83.4963 13.6831 84.3957 13.9281 85.1873 14.418C85.9788 14.9079 86.6048 15.578 87.0653 16.4282C87.5258 17.2783 87.7561 18.2438 87.7561 19.3245C87.7561 20.4052 87.5258 21.3707 87.0653 22.2209C86.6048 23.0566 85.9788 23.7195 85.1873 24.2094C84.3957 24.6849 83.4963 24.9227 82.4889 24.9227ZM81.9061 22.5019C82.7839 22.5019 83.5107 22.2065 84.0863 21.6157C84.662 21.0249 84.9498 20.2612 84.9498 19.3245C84.9498 18.3879 84.662 17.617 84.0863 17.0118C83.5107 16.4066 82.7839 16.104 81.9061 16.104C81.0138 16.104 80.2799 16.4066 79.7042 17.0118C79.143 17.6026 78.8623 18.3663 78.8623 19.3029C78.8623 20.2395 79.143 21.0105 79.7042 21.6157C80.2799 22.2065 81.0138 22.5019 81.9061 22.5019Z" fill="#CEEAFF"/>
<path d="M95.362 24.9227C94.3259 24.9227 93.3904 24.6849 92.5558 24.2094C91.7355 23.7339 91.0807 23.0782 90.5914 22.2425C90.1165 21.3923 89.879 20.4125 89.879 19.3029C89.879 18.1934 90.1237 17.2207 90.613 16.3849C91.1023 15.5348 91.757 14.8719 92.5773 14.3964C93.412 13.9209 94.3475 13.6831 95.3836 13.6831C96.4054 13.6831 97.3264 13.9209 98.1467 14.3964C98.9814 14.8719 99.6362 15.5348 100.111 16.3849C100.6 17.2207 100.845 18.1934 100.845 19.3029C100.845 20.4125 100.6 21.3923 100.111 22.2425C99.6362 23.0782 98.9814 23.7339 98.1467 24.2094C97.312 24.6849 96.3838 24.9227 95.362 24.9227ZM95.362 22.5235C96.0816 22.5235 96.7076 22.2569 97.2401 21.7237C97.7726 21.1762 98.0388 20.3692 98.0388 19.3029C98.0388 18.2366 97.7726 17.4368 97.2401 16.9037C96.7076 16.3561 96.0888 16.0823 95.3836 16.0823C94.6497 16.0823 94.0165 16.3561 93.484 16.9037C92.9659 17.4368 92.7069 18.2366 92.7069 19.3029C92.7069 20.3692 92.9659 21.1762 93.484 21.7237C94.0165 22.2569 94.6425 22.5235 95.362 22.5235Z" fill="#CEEAFF"/>
<path d="M108.453 24.9227C107.417 24.9227 106.482 24.6849 105.647 24.2094C104.827 23.7339 104.172 23.0782 103.683 22.2425C103.208 21.3923 102.97 20.4125 102.97 19.3029C102.97 18.1934 103.215 17.2207 103.704 16.3849C104.193 15.5348 104.848 14.8719 105.669 14.3964C106.503 13.9209 107.439 13.6831 108.475 13.6831C109.497 13.6831 110.418 13.9209 111.238 14.3964C112.073 14.8719 112.727 15.5348 113.202 16.3849C113.692 17.2207 113.936 18.1934 113.936 19.3029C113.936 20.4125 113.692 21.3923 113.202 22.2425C112.727 23.0782 112.073 23.7339 111.238 24.2094C110.403 24.6849 109.475 24.9227 108.453 24.9227ZM108.453 22.5235C109.173 22.5235 109.799 22.2569 110.331 21.7237C110.864 21.1762 111.13 20.3692 111.13 19.3029C111.13 18.2366 110.864 17.4368 110.331 16.9037C109.799 16.3561 109.18 16.0823 108.475 16.0823C107.741 16.0823 107.108 16.3561 106.575 16.9037C106.057 17.4368 105.798 18.2366 105.798 19.3029C105.798 20.3692 106.057 21.1762 106.575 21.7237C107.108 22.2569 107.734 22.5235 108.453 22.5235Z" fill="#CEEAFF"/>
<path d="M116.407 24.6633V13.9425H118.846L119.084 15.3907C119.429 14.8719 119.882 14.4612 120.444 14.1586C121.019 13.8416 121.681 13.6831 122.429 13.6831C124.084 13.6831 125.257 14.3244 125.948 15.6068C126.337 15.016 126.855 14.5477 127.502 14.2019C128.164 13.856 128.884 13.6831 129.661 13.6831C131.057 13.6831 132.129 14.101 132.877 14.9368C133.626 15.7725 134 16.9974 134 18.6112V24.6633H131.237V18.8706C131.237 17.9484 131.057 17.2423 130.697 16.7524C130.352 16.2625 129.812 16.0175 129.078 16.0175C128.33 16.0175 127.725 16.2913 127.265 16.8388C126.819 17.3864 126.596 18.1501 126.596 19.13V24.6633H123.833V18.8706C123.833 17.9484 123.653 17.2423 123.293 16.7524C122.933 16.2625 122.379 16.0175 121.631 16.0175C120.897 16.0175 120.3 16.2913 119.839 16.8388C119.393 17.3864 119.17 18.1501 119.17 19.13V24.6633H116.407Z" fill="#CEEAFF"/>
</svg>
