<svg width="364" height="179" viewBox="0 0 364 179" fill="none" xmlns="http://www.w3.org/2000/svg">
<g filter="url(#filter0_ii_531_4760)">
<path d="M91.9522 47.7004L91.2805 48.2207L84.0691 53.4761L82.7849 54.3915L84.0691 55.3398L112.17 75.8015L103.187 103.442L102.7 104.969H114.06L114.337 104.179L124.63 72.535L124.874 71.7382L124.202 71.2508L92.6239 48.2207L91.9522 47.7004ZM80.5853 56.0708L79.9136 56.5582L48.276 79.4697L47.5977 79.9834L47.8479 80.7803L50.5941 89.2692L51.0815 90.7708L52.3657 89.8488L80.526 69.3871L104.076 86.4901L105.361 87.4055L105.848 85.9105L108.594 77.4216L108.838 76.6247L108.166 76.1045L81.2571 56.5582L80.5853 56.0708ZM80.1572 72.4099L79.4855 72.8972L52.5501 92.4501L51.8783 92.9638L52.122 93.7607L64.1277 130.93L64.3977 131.727H75.7646L75.2707 130.199L64.5492 97.1523L88.0732 80.0493L89.3509 79.1009L88.0732 78.1526L80.829 72.8972L80.1572 72.4099ZM126.738 72.9894L126.25 74.491L115.496 107.564H84.8331L85.3204 109.092L88.0996 117.614L88.3762 118.411H123.287L123.563 117.614L135.688 80.4774L135.931 79.6805L135.26 79.1602L128.022 73.9048L126.738 72.9894ZM76.7393 91.7454L75.4551 92.6609L68.2174 97.9162L67.5457 98.4365L67.7893 99.2268L78.0498 130.871L78.3264 131.668H79.1496L118.216 131.727H119.039L119.316 130.93L122.095 122.441L122.582 120.913H86.2095L77.2266 93.2404L76.7393 91.7454Z" fill="url(#paint0_radial_531_4760)"/>
</g>
<g style="mix-blend-mode:plus-lighter" opacity="0.23" filter="url(#filter1_f_531_4760)">
<path d="M91.9522 47.7004L91.2805 48.2207L84.0691 53.4761L82.7849 54.3915L84.0691 55.3398L112.17 75.8015L103.187 103.442L102.7 104.969H114.06L114.337 104.179L124.63 72.535L124.874 71.7382L124.202 71.2508L92.6239 48.2207L91.9522 47.7004ZM80.5853 56.0708L79.9136 56.5582L48.276 79.4697L47.5977 79.9834L47.8479 80.7803L50.5941 89.2692L51.0815 90.7708L52.3657 89.8488L80.526 69.3871L104.076 86.4901L105.361 87.4055L105.848 85.9105L108.594 77.4216L108.838 76.6247L108.166 76.1045L81.2571 56.5582L80.5853 56.0708ZM80.1572 72.4099L79.4855 72.8972L52.5501 92.4501L51.8783 92.9638L52.122 93.7607L64.1277 130.93L64.3977 131.727H75.7646L75.2707 130.199L64.5492 97.1523L88.0732 80.0493L89.3509 79.1009L88.0732 78.1526L80.829 72.8972L80.1572 72.4099ZM126.738 72.9894L126.25 74.491L115.496 107.564H84.8331L85.3204 109.092L88.0996 117.614L88.3762 118.411H123.287L123.563 117.614L135.688 80.4774L135.931 79.6805L135.26 79.1602L128.022 73.9048L126.738 72.9894ZM76.7393 91.7454L75.4551 92.6609L68.2174 97.9162L67.5457 98.4365L67.7893 99.2268L78.0498 130.871L78.3264 131.668H79.1496L118.216 131.727H119.039L119.316 130.93L122.095 122.441L122.582 120.913H86.2095L77.2266 93.2404L76.7393 91.7454Z" fill="url(#paint1_radial_531_4760)"/>
</g>
<g style="mix-blend-mode:overlay" filter="url(#filter2_d_531_4760)">
<path d="M91.9522 47.7004L91.2805 48.2207L84.0691 53.4761L82.7849 54.3915L84.0691 55.3398L112.17 75.8015L103.187 103.442L102.7 104.969H114.06L114.337 104.179L124.63 72.535L124.874 71.7382L124.202 71.2508L92.6239 48.2207L91.9522 47.7004ZM80.5853 56.0708L79.9136 56.5582L48.276 79.4697L47.5977 79.9834L47.8479 80.7803L50.5941 89.2692L51.0815 90.7708L52.3657 89.8488L80.526 69.3871L104.076 86.4901L105.361 87.4055L105.848 85.9105L108.594 77.4216L108.838 76.6247L108.166 76.1045L81.2571 56.5582L80.5853 56.0708ZM80.1572 72.4099L79.4855 72.8972L52.5501 92.4501L51.8783 92.9638L52.122 93.7607L64.1277 130.93L64.3977 131.727H75.7646L75.2707 130.199L64.5492 97.1523L88.0732 80.0493L89.3509 79.1009L88.0732 78.1526L80.829 72.8972L80.1572 72.4099ZM126.738 72.9894L126.25 74.491L115.496 107.564H84.8331L85.3204 109.092L88.0996 117.614L88.3762 118.411H123.287L123.563 117.614L135.688 80.4774L135.931 79.6805L135.26 79.1602L128.022 73.9048L126.738 72.9894ZM76.7393 91.7454L75.4551 92.6609L68.2174 97.9162L67.5457 98.4365L67.7893 99.2268L78.0498 130.871L78.3264 131.668H79.1496L118.216 131.727H119.039L119.316 130.93L122.095 122.441L122.582 120.913H86.2095L77.2266 93.2404L76.7393 91.7454Z" fill="#FF63CA"/>
<path d="M103.023 104.734L103.412 103.515L103.412 103.513L112.395 75.8745L112.448 75.7116L112.309 75.6108L84.2093 55.15L84.208 55.1491L83.1867 54.3949L84.2061 53.6682L84.2081 53.6668L91.4194 48.4114L91.4195 48.4115L91.425 48.4073L91.9522 47.9989L92.4794 48.4073L92.4794 48.4074L92.4849 48.4114L124.063 71.4415L124.064 71.4418L124.599 71.8302L124.406 72.462L124.405 72.466L114.114 104.101L114.113 104.106L113.893 104.734H103.023ZM105.236 87.0268L104.215 86.2991L104.213 86.2979L80.6647 69.1961L80.526 69.0954L80.3873 69.1962L52.2281 89.6571L52.227 89.6579L51.2062 90.3907L50.8187 89.1966L50.8186 89.1964L48.073 80.7096L48.0724 80.7077L47.8726 80.0712L48.4144 79.6609L48.4184 79.6579L80.052 56.7493L80.0522 56.7492L80.5853 56.3624L81.1184 56.7491L81.1185 56.7492L108.024 76.2932L108.565 76.7115L108.37 77.349L108.369 77.3526L105.624 85.8374L105.623 85.8379L105.236 87.0268ZM64.4104 96.9614L64.2719 97.0622L64.3247 97.2251L75.0461 130.272L75.0462 130.272L75.4403 131.491H64.5669L64.3523 130.858L64.3512 130.854L52.3477 93.6917L52.3466 93.6881L52.152 93.0516L52.6911 92.6394L79.6241 73.0882L79.6241 73.0882L80.1572 72.7014L80.6904 73.0882L87.9326 78.3421L87.9347 78.3436L88.9549 79.1009L87.9345 79.8584L87.9326 79.8598L64.4104 96.9614ZM126.475 74.5638L126.863 73.3684L127.883 74.0958L127.885 74.097L135.115 79.3468L135.121 79.3512L135.658 79.7673L135.463 80.4041L135.462 80.4084L123.341 117.537L123.339 117.541L123.119 118.175H88.5441L88.3239 117.541L88.3225 117.537L85.5452 109.02L85.5448 109.019L85.156 107.8H115.496H115.667L115.72 107.637L126.475 74.5639L126.475 74.5638ZM75.5937 92.8518L76.6145 92.1242L77.0022 93.3133L77.0023 93.3135L85.985 120.986L86.038 121.149H86.2095H122.259L121.871 122.368L121.87 122.37L119.093 130.853L119.091 130.857L118.871 131.491H118.216H118.216L79.15 131.432H79.1496H78.4943L78.2743 130.798L78.2728 130.794L68.0148 99.1572L68.0138 99.154L67.8193 98.523L68.359 98.105L75.592 92.853L75.5937 92.8518Z" stroke="white" stroke-width="0.471955"/>
</g>
<g opacity="0.6">
<g style="mix-blend-mode:plus-lighter" opacity="0.78" filter="url(#filter3_f_531_4760)">
<ellipse cx="82.1649" cy="63.507" rx="23.764" ry="2.99724" transform="rotate(-31.0823 82.1649 63.507)" fill="#FFF744"/>
</g>
<g style="mix-blend-mode:plus-lighter" filter="url(#filter4_f_531_4760)">
<ellipse cx="116.812" cy="86.3901" rx="11.761" ry="5.18029" transform="rotate(-31.0823 116.812 86.3901)" fill="#96FF44"/>
</g>
</g>
<path d="M172.416 108.745C163.029 108.745 157.209 102.968 157.209 94.0904C157.209 85.2129 163.029 79.4362 172.416 79.4362C181.251 79.4362 186.943 83.8537 186.943 91.0746V91.7117H179.849V91.0746C179.849 87.3367 177.725 85.5527 172.543 85.5527C166.299 85.5527 163.963 87.7615 163.963 94.0904C163.963 100.419 166.299 102.628 172.543 102.628C177.725 102.628 179.849 100.844 179.849 97.1062V96.469H186.943V97.1062C186.943 104.327 181.293 108.745 172.416 108.745ZM197.052 108.32H189.916L202.361 79.8609H211.451L223.982 108.32H216.676L214 102.033H199.77L197.052 108.32ZM204.91 90.0976L202.234 96.2991H211.536L208.86 90.0976L207.119 85.6801H206.651L204.91 90.0976ZM241.354 108.745C232.094 108.745 227.379 104.072 227.379 96.4266V79.8609H233.751V95.9593C233.751 100.802 235.577 102.543 241.354 102.543C247.173 102.543 248.957 100.802 248.957 95.9593V79.8609H255.328V96.4266C255.328 104.072 250.656 108.745 241.354 108.745ZM273.573 108.745C264.95 108.745 260.108 105.347 260.108 98.7203V98.4654H266.479V99.23C266.479 101.863 267.796 102.925 273.573 102.925C278.67 102.925 279.859 102.161 279.859 100.249C279.859 98.5079 278.882 97.8707 275.951 97.361L267.966 96.2142C262.869 95.4071 259.853 92.8586 259.853 88.2287C259.853 83.9386 263.336 79.4362 272.893 79.4362C281.643 79.4362 285.721 83.4714 285.721 89.4605V89.7154H279.307V89.1207C279.307 86.4022 277.905 85.2554 272.256 85.2554C267.668 85.2554 266.267 86.1474 266.267 87.9738C266.267 89.6304 267.201 90.2251 269.58 90.6498L277.565 91.9241C283.937 92.9435 286.23 96.0443 286.23 99.9521C286.23 104.582 282.62 108.745 273.573 108.745ZM306.792 108.32H300.421V85.5952H289.844V79.8609H317.369V85.5952H306.792V108.32ZM328.149 108.32H321.777V79.8609H328.149V108.32ZM348.177 108.745C338.789 108.745 332.97 102.968 332.97 94.0904C332.97 85.2129 338.789 79.4362 348.177 79.4362C357.012 79.4362 362.703 83.8537 362.703 91.0746V91.7117H355.61V91.0746C355.61 87.3367 353.486 85.5527 348.304 85.5527C342.06 85.5527 339.724 87.7615 339.724 94.0904C339.724 100.419 342.06 102.628 348.304 102.628C353.486 102.628 355.61 100.844 355.61 97.1062V96.469H362.703V97.1062C362.703 104.327 357.054 108.745 348.177 108.745Z" fill="#EBFFF8"/>
<defs>
<filter id="filter0_ii_531_4760" x="47.5977" y="42.9809" width="88.3337" height="93.4657" filterUnits="userSpaceOnUse" color-interpolation-filters="sRGB">
<feFlood flood-opacity="0" result="BackgroundImageFix"/>
<feBlend mode="normal" in="SourceGraphic" in2="BackgroundImageFix" result="shape"/>
<feColorMatrix in="SourceAlpha" type="matrix" values="0 0 0 0 0 0 0 0 0 0 0 0 0 0 0 0 0 0 127 0" result="hardAlpha"/>
<feOffset dy="4.71955"/>
<feGaussianBlur stdDeviation="2.83173"/>
<feComposite in2="hardAlpha" operator="arithmetic" k2="-1" k3="1"/>
<feColorMatrix type="matrix" values="0 0 0 0 0 0 0 0 0 0 0 0 0 0 0 0 0 0 0.38 0"/>
<feBlend mode="normal" in2="shape" result="effect1_innerShadow_531_4760"/>
<feColorMatrix in="SourceAlpha" type="matrix" values="0 0 0 0 0 0 0 0 0 0 0 0 0 0 0 0 0 0 127 0" result="hardAlpha"/>
<feOffset dy="-4.71955"/>
<feGaussianBlur stdDeviation="4.71955"/>
<feComposite in2="hardAlpha" operator="arithmetic" k2="-1" k3="1"/>
<feColorMatrix type="matrix" values="0 0 0 0 0.881667 0 0 0 0 1 0 0 0 0 0.408333 0 0 0 0.72 0"/>
<feBlend mode="normal" in2="effect1_innerShadow_531_4760" result="effect2_innerShadow_531_4760"/>
</filter>
<filter id="filter1_f_531_4760" x="0.402153" y="0.504936" width="182.725" height="178.418" filterUnits="userSpaceOnUse" color-interpolation-filters="sRGB">
<feFlood flood-opacity="0" result="BackgroundImageFix"/>
<feBlend mode="normal" in="SourceGraphic" in2="BackgroundImageFix" result="shape"/>
<feGaussianBlur stdDeviation="23.5978" result="effect1_foregroundBlur_531_4760"/>
</filter>
<filter id="filter2_d_531_4760" x="38.1586" y="38.2613" width="107.212" height="102.905" filterUnits="userSpaceOnUse" color-interpolation-filters="sRGB">
<feFlood flood-opacity="0" result="BackgroundImageFix"/>
<feColorMatrix in="SourceAlpha" type="matrix" values="0 0 0 0 0 0 0 0 0 0 0 0 0 0 0 0 0 0 127 0" result="hardAlpha"/>
<feOffset/>
<feGaussianBlur stdDeviation="4.71955"/>
<feComposite in2="hardAlpha" operator="out"/>
<feColorMatrix type="matrix" values="0 0 0 0 0 0 0 0 0 0 0 0 0 0 0 0 0 0 0.38 0"/>
<feBlend mode="normal" in2="BackgroundImageFix" result="effect1_dropShadow_531_4760"/>
<feBlend mode="normal" in="SourceGraphic" in2="effect1_dropShadow_531_4760" result="shape"/>
</filter>
<filter id="filter3_f_531_4760" x="44.7626" y="33.9798" width="74.8045" height="59.0545" filterUnits="userSpaceOnUse" color-interpolation-filters="sRGB">
<feFlood flood-opacity="0" result="BackgroundImageFix"/>
<feBlend mode="normal" in="SourceGraphic" in2="BackgroundImageFix" result="shape"/>
<feGaussianBlur stdDeviation="8.49519" result="effect1_foregroundBlur_531_4760"/>
</filter>
<filter id="filter4_f_531_4760" x="89.3971" y="61.8792" width="54.8289" height="49.0218" filterUnits="userSpaceOnUse" color-interpolation-filters="sRGB">
<feFlood flood-opacity="0" result="BackgroundImageFix"/>
<feBlend mode="normal" in="SourceGraphic" in2="BackgroundImageFix" result="shape"/>
<feGaussianBlur stdDeviation="8.49519" result="effect1_foregroundBlur_531_4760"/>
</filter>
<radialGradient id="paint0_radial_531_4760" cx="0" cy="0" r="1" gradientUnits="userSpaceOnUse" gradientTransform="translate(92.2845 47.7004) rotate(90.3292) scale(90.504 95.1964)">
<stop stop-color="#AAFF20"/>
<stop offset="0.546266" stop-color="#19C016"/>
<stop offset="1" stop-color="#26FFF2"/>
</radialGradient>
<radialGradient id="paint1_radial_531_4760" cx="0" cy="0" r="1" gradientUnits="userSpaceOnUse" gradientTransform="translate(92.2845 47.7004) rotate(90.3292) scale(90.504 95.1964)">
<stop stop-color="#AAFF20"/>
<stop offset="0.546266" stop-color="#19C016"/>
<stop offset="1" stop-color="#26FFF2"/>
</radialGradient>
</defs>
</svg>
